# xmcd CD database file
#
# Track frame offsets:
#	150
#	32184
#	51794
#
# Disc length: 948 seconds
#
# Revision: 10
# Processed by: cddbd v1.5.1PL0 Copyright (c) Steve Scherf et al.
# Submitted via: CDex 1.51
#
DISCID=2003b203
DTITLE=トラジ・ハイジ - ファンタスティポ
DYEAR=2005
DGENRE=Pop
TTITLE0=オシャベリ
TTITLE1=ファンタスティポ
TTITLE2=ファンタスティポ（オリジナル・カラオケ）
EXTD=YEAR: 2005
EXTT0=
EXTT1=
EXTT2=
PLAYORDER=
